<svg height="128.00006" width="128.00006" xmlns="http://www.w3.org/2000/svg" xmlns:xlink="http://www.w3.org/1999/xlink"><linearGradient id="a" gradientTransform="matrix(3.1081078 0 0 2.4594594 -10.594599 11.973044)" gradientUnits="userSpaceOnUse" x1="40.290417" x2="40.290417" y1="5.703293" y2="42.2967"><stop offset="0" stop-color="#fff"/><stop offset=".02213688" stop-color="#fff" stop-opacity=".235294"/><stop offset=".9666667" stop-color="#fff" stop-opacity=".156863"/><stop offset="1" stop-color="#fff" stop-opacity=".392157"/></linearGradient><radialGradient id="b" cx="7.118353" cy="9.957108" gradientTransform="matrix(0 21.795969 -33.663904 0 401.68831 -174.34713)" gradientUnits="userSpaceOnUse" r="12.671875" xlink:href="#c"/><linearGradient id="c"><stop offset="0" stop-color="#2b3235"/><stop offset="1" stop-color="#374044"/></linearGradient><linearGradient id="d" gradientTransform="matrix(-.37837833 0 0 .37837833 38.14241 1.405349)" gradientUnits="userSpaceOnUse" x1="71.204407" x2="71.204407" y1="6.237558" y2="44.340794"><stop offset="0" stop-color="#fff"/><stop offset=".507761" stop-color="#fff" stop-opacity=".235294"/><stop offset=".83456558" stop-color="#fff" stop-opacity=".156863"/><stop offset="1" stop-color="#fff" stop-opacity=".392157"/></linearGradient><linearGradient id="e" gradientTransform="matrix(-.41176471 0 0 .41176471 24.17647 -3)" gradientUnits="userSpaceOnUse" x1="38.976662" x2="38.976662" xlink:href="#c" y1="59.967686" y2="8.092892"/><clipPath id="f"><rect height="3" ry="1.5" width="104" x="12" y="-111.00006"/></clipPath><linearGradient id="g" gradientUnits="userSpaceOnUse" x1="25.058096" x2="25.058096" y1="47.027729" y2="39.999443"><stop offset="0" stop-color="#181818" stop-opacity="0"/><stop offset=".5" stop-color="#181818"/><stop offset="1" stop-color="#181818" stop-opacity="0"/></linearGradient><linearGradient id="h"><stop offset="0" stop-color="#181818"/><stop offset="1" stop-color="#181818" stop-opacity="0"/></linearGradient><radialGradient id="i" cx="4.992979" cy="43.5" gradientTransform="matrix(2.003784 0 0 1.4 -20.01187 -104.4)" gradientUnits="userSpaceOnUse" r="2.5" xlink:href="#h"/><radialGradient id="j" cx="4.992979" cy="43.5" gradientTransform="matrix(2.003784 0 0 1.4 27.98813 -17.4)" gradientUnits="userSpaceOnUse" r="2.5" xlink:href="#h"/><radialGradient id="k" cx="-4.028777" cy="93.467628" gradientTransform="matrix(1.7403296 0 0 .16978827 71.011392 101.13029)" gradientUnits="userSpaceOnUse" r="35.338131"><stop offset="0"/><stop offset="1" stop-opacity="0"/></radialGradient><linearGradient id="l" gradientUnits="userSpaceOnUse" x1="84.899765" x2="84.899765" y1="24.768591" y2="116.88945"><stop offset="0" stop-color="#ed5353"/><stop offset="1" stop-color="#c6262e"/></linearGradient><path d="m5.5 102v11.5c0 2.216 1.784 4 4 4h109c2.216 0 4-1.784 4-4v-11.5z" fill="url(#b)" opacity=".9"/><rect fill="#fff" height="3" opacity=".1" ry="1.5" transform="scale(1 -1)" width="104" x="12" y="-112.00006"/><rect fill="#363b3d" height="3" ry="1.5" transform="scale(1 -1)" width="104" x="12" y="-111.00006"/><path d="m9.5 24.5c-2.216 0-4 1.784-4 4v73.5h117v-73.5c0-2.216-1.784-4-4-4z" fill="url(#l)"/><path d="m5 102v11.5c0 2.48435 2.0156486 4.5 4.5 4.5h109c2.48435 0 4.5-2.01565 4.5-4.5v-11.5h-1v11.5c0 1.94765-1.55235 3.5-3.5 3.5h-109c-1.9476486 0-3.5-1.55235-3.5-3.5v-11.5z" opacity=".5"/><path d="m9.5 24c-2.4843514 0-4.5 2.015649-4.5 4.5v73.5h1v-73.5c0-1.947649 1.5523514-3.5 3.5-3.5h109c1.94765 0 3.5 1.552351 3.5 3.5v73.5h1v-73.5c0-2.484351-2.01565-4.5-4.5-4.5z" fill="#7a0000" opacity=".5"/><rect height="3" ry="1.5" style="opacity:.2;fill:none;stroke:#000;stroke-width:2;stroke-linecap:round;stroke-linejoin:round;clip-path:url(#f)" transform="scale(1 -1)" width="104" x="12" y="-111.00006"/><path d="m6 102.00006v1h116v-1z" fill-rule="evenodd" opacity=".2"/><g transform="matrix(.28571429 0 0 .28571429 41.357143 106.35721)"><path d="m11 .5000005c5.79354 0 10.5 4.70646 10.5 10.5000005 0 5.793539-4.70646 10.499999-10.5 10.499999s-10.50001-4.70646-10.5-10.499999c0-5.7935405 4.70646-10.5000005 10.5-10.5000005z" fill="url(#e)"/><g fill="none" stroke-linecap="round" stroke-linejoin="round" stroke-width="3.5"><path d="m3.9999993 10.999728c0 3.866123 3.1342389 7.00025 6.9999117 7.00025 3.866026 0 7.000088-3.134165 7.000088-7.00025 0-3.8659377-3.134062-6.9997484-7.000088-6.9997484-3.8656728 0-6.9999117 3.1338107-6.9999117 6.9997484z" opacity=".15" stroke="url(#d)"/><path d="m11 .5000005c5.79354 0 10.5 4.70646 10.5 10.5000005 0 5.793539-4.70646 10.499999-10.5 10.499999s-10.50001-4.70646-10.5-10.499999c0-5.7935405 4.70646-10.5000005 10.5-10.5000005z" stroke="#212930"/></g></g><g fill-rule="evenodd"><path d="m24.21875 20.46875c-.01389.0019-.07997.02871-.09375.03125-.01378.0025-.0801-.0032-.09375 0s-.08026.02745-.09375.03125-.0492.02683-.0625.03125c-.0133.0044-.08067.02622-.09375.03125-.01308.005-.08092.02562-.09375.03125-.01283.0056-.08119.02503-.09375.03125-.01256.0062-.05024.05571-.0625.0625-.01226.0068-.08182.0239-.09375.03125-.01193.0074-.08217.0546-.09375.0625s-.0513.05408-.0625.0625c-.0112.0084-.0517.05357-.0625.0625-.0108.0089-.08337.05308-.09375.0625-.01038.0094-.05257.05261-.0625.0625-.0099.0099-.05304.05216-.0625.0625-.0095.01034-.05353.05173-.0625.0625-.009.01077-.05403.08258-.0625.09375-.0085.01117-.05456.05095-.0625.0625-.0079.01155-.02385.08185-.03125.09375s-.05566.05026-.0625.0625c-.0068.01224-.02499.08121-.03125.09375-.0063.01254-.05682.08094-.0625.09375-.0057.01281-.02617.04944-.03125.0625-.0051.01306-.02678.08047-.03125.09375-.0045.01328-.0274.08027-.03125.09375-.0039.01348.0032.08011 0 .09375s-.02866.07998-.03125.09375c-.0026.01377-.0293.07987-.03125.09375-.0019.01388.0013.0798 0 .09375s.000658.07975 0 .09375.00001.07973 0 .09375v19c.000151.01956-.0014.105489 0 .125.0014.01951-.0027.136871 0 .15625.0027.01938.02734.105833.03125.125.0039.01917.02611.106126.03125.125.0051.01887.0249.106497.03125.125.0064.0185.05497.106945.0625.125.0075.01805.05382.107469.0625.125.0087.01753.05271.07682.0625.09375.0098.01693.05163.108733.0625.125.01087.01627.05061.07822.0625.09375s.08088.110268.09375.125c.01287.01473.07996.07988.09375.09375s.07909.0808.09375.09375.07828.05052.09375.0625.108793.08279.125.09375c.01621.01096.07687.05261.09375.0625.01688.0099.107517.05372.125.0625.01748.0088.106987.05487.125.0625.01801.0076.106532.0248.125.03125.01847.0065.106154.05725.125.0625.01885.0052.105855.02723.125.03125.01915.004.105636-.0028.125 0 .01936.0028.105497.02973.125.03125.0195.0015.105439-.000259.125 0 .01956.000259.136713.001.15625 0 .01954-.001.105569.0023.125 0 .01943-.0023.105755-.02774.125-.03125.01925-.0035.106022-.0265.125-.03125.01898-.0047.106368-.02529.125-.03125.01863-.006.106792-.05535.125-.0625.01821-.0072.107291-.02294.125-.03125.01771-.0083.107864-.05306.125-.0625l17-9.5c.01729-.0099.108399-.08276.125-.09375.0166-.01099.07791-.05044.09375-.0625s.07873-.08068.09375-.09375.110874-.07972.125-.09375c.01413-.01403.08058-.07882.09375-.09375s.05033-.07799.0625-.09375.08265-.108472.09375-.125c.0111-.01653.05251-.07653.0625-.09375.01-.01722.05366-.10716.0625-.125.0088-.01784.05485-.106617.0625-.125.0076-.01838.02482-.106155.03125-.125.0064-.01884.05732-.105773.0625-.125.0052-.01923.02735-.105475.03125-.125.0039-.01953-.0026-.105261 0-.125.0026-.01974.02994-.136382.03125-.15625.0013-.01987 0-.105089 0-.125 0-.01991.0013-.105132 0-.125-.0013-.01987-.02864-.136511-.03125-.15625-.0026-.01974.0039-.105475 0-.125-.0039-.01953-.02607-.105773-.03125-.125-.0052-.01923-.05607-.106155-.0625-.125-.0064-.01884-.0236-.106617-.03125-.125-.0076-.01838-.05366-.10716-.0625-.125-.0088-.01784-.05251-.107779-.0625-.125-.01-.01722-.0514-.07722-.0625-.09375s-.08158-.109237-.09375-.125c-.01217-.01576-.04933-.07882-.0625-.09375s-.07962-.07972-.09375-.09375-.109983-.08068-.125-.09375c-.01502-.01307-.07791-.08169-.09375-.09375s-.07715-.05151-.09375-.0625-.107712-.08387-.125-.09375l-17-9.5c-.01958-.0111-.10465-.05288-.125-.0625-.02035-.0096-.135242-.05442-.15625-.0625-.02101-.0081-.10345-.056-.125-.0625s-.134277-.02637-.15625-.03125c-.02197-.0049-.133975-.02801-.15625-.03125-.02228-.0032-.133796.0016-.15625 0-.02245-.0016-.133741-.000095-.15625 0-.02251.000095-.102561-.0018-.125 0a.56695164.56695164 0 0 0 -.03125 0c-.01396.0013-.07986-.0019-.09375 0z" fill="#7a0000" opacity=".07" transform="matrix(1.8062282 0 0 1.8233533 5.400389 7.660958)"/><path d="m24.375 21.03125a1.4756824 1.4756824 0 0 0 -1.34375 1.46875v19a1.4756824 1.4756824 0 0 0 2.1875 1.28125l17-9.5a1.4756824 1.4756824 0 0 0 0-2.5625l-17-9.5a1.4756824 1.4756824 0 0 0 -.84375-.1875z" fill="#7a0000" opacity=".15" transform="matrix(1.8062282 0 0 1.8233533 5.400389 7.660958)"/><path d="m24.375 21.03125a1.4756824 1.4756824 0 0 0 -1.34375 1.46875v19a1.4756824 1.4756824 0 0 0 2.1875 1.28125l17-9.5a1.4756824 1.4756824 0 0 0 0-2.5625l-17-9.5a1.4756824 1.4756824 0 0 0 -.84375-.1875z" fill="#fafafa" transform="matrix(1.8062282 0 0 1.8233533 5.400388 6.660958)"/></g><path d="m9.5 25.500061h109c1.662 0 3 1.338 3 3v84.999999c0 1.662-1.338 3-3 3h-109c-1.662 0-3-1.338-3-3v-84.999999c0-1.662 1.338-3 3-3zm-2.5 77.999999h114zm0-2h114z" fill="none" opacity=".3" stroke="url(#a)" stroke-linecap="round" stroke-linejoin="round"/><path d="m125.5 117a61.500002 6.0000004 0 0 1 -123.0000024 0 61.500002 6.0000004 0 1 1 123.0000024 0z" fill="url(#k)" opacity=".2"/><g opacity=".4" transform="matrix(3.18421053684 0 0 .71428566143 -12.42105243421 86.42857409176)"><path d="m38 40h5v7h-5z" fill="url(#j)"/><path d="m-10-47h5v7h-5z" fill="url(#i)" transform="scale(-1)"/><path d="m10 40h28v7.000001h-28z" fill="url(#g)"/></g></svg>